<svg width="500" height="500" viewBox="0 0 500 500" fill="none" xmlns="http://www.w3.org/2000/svg">
<path d="M243.913 51.528V39.912H246.825V51.528H243.913ZM243.913 39.912C243.913 38.7387 244.179 37.704 244.713 36.808C245.246 35.8907 245.993 35.1867 246.953 34.696C247.913 34.184 249.011 33.928 250.249 33.928V36.456C249.182 36.456 248.339 36.7547 247.721 37.352C247.123 37.9493 246.825 38.8027 246.825 39.912H243.913ZM243.913 51.496H246.825C246.825 52.6053 247.123 53.4693 247.721 54.088C248.339 54.6853 249.182 54.984 250.249 54.984V57.512C249.011 57.512 247.913 57.256 246.953 56.744C245.993 56.232 245.246 55.528 244.713 54.632C244.179 53.736 243.913 52.6907 243.913 51.496ZM254.057 40.744C253.929 39.4 253.523 38.3547 252.841 37.608C252.179 36.84 251.305 36.456 250.217 36.456V33.928C252.03 33.928 253.502 34.4827 254.633 35.592C255.785 36.7013 256.478 38.2373 256.713 40.2L254.057 40.744ZM254.057 50.696L256.713 51.208C256.478 53.192 255.785 54.7387 254.633 55.848C253.502 56.9573 252.03 57.512 250.217 57.512V54.984C251.305 54.984 252.179 54.6107 252.841 53.864C253.523 53.096 253.929 52.04 254.057 50.696Z" fill="white"/>
<path d="M145.196 76.1599L143.9 73.9152L149.498 70.6832L150.794 72.9279L145.196 76.1599ZM137.063 66.2971L139.585 64.8411L150.865 84.3786L148.343 85.8346L137.063 66.2971ZM138.753 65.3211L145.875 61.2091L147.139 63.3984L140.017 67.5104L138.753 65.3211Z" fill="white"/>
<path d="M70.6 153.546L68.5492 152.362C69.0825 151.438 69.2214 150.558 68.9658 149.72C68.7102 148.883 68.0836 148.176 67.0859 147.6L68.5419 145.079C69.5396 145.655 70.297 146.412 70.8141 147.351C71.3234 148.261 71.569 149.265 71.5508 150.363C71.5143 151.45 71.1973 152.511 70.6 153.546ZM78.3809 161.253L76.1916 159.989L77.7436 157.301L79.9329 158.565L78.3809 161.253ZM69.3465 156.037L67.1572 154.773L68.7092 152.085L70.8985 153.349L69.3465 156.037ZM76.4466 152.635L75.7815 152.251L77.2375 149.729L77.9026 150.113L76.4466 152.635ZM75.8092 152.267C74.7931 151.681 73.8585 151.486 73.0056 151.683C72.1342 151.87 71.4319 152.425 70.8985 153.349L68.8478 152.165C69.4451 151.13 70.2147 150.331 71.1566 149.766C72.0985 149.201 73.1 148.917 74.1611 148.914C75.2328 148.892 76.2675 149.169 77.2652 149.745L75.8092 152.267ZM61.0327 151.237L58.8434 149.973L60.2354 147.562L62.4247 148.826L61.0327 151.237ZM68.5697 145.095L67.1137 147.616C66.1529 147.062 65.2646 146.894 64.4486 147.112C63.6327 147.331 62.958 147.902 62.4247 148.826L60.2354 147.562C60.854 146.49 61.6197 145.676 62.5325 145.119C63.4374 144.533 64.4204 144.239 65.4815 144.235C66.5241 144.221 67.5535 144.508 68.5697 145.095ZM77.8749 150.097C78.9095 150.695 79.6815 151.448 80.1907 152.358C80.7 153.268 80.9364 154.267 80.8998 155.354C80.8739 156.423 80.5516 157.493 79.9329 158.565L77.7436 157.301C78.2769 156.377 78.4343 155.507 78.2156 154.691C77.9785 153.865 77.3796 153.174 76.4189 152.619L77.8749 150.097ZM77.3249 163.082L57.7874 151.802L59.2434 149.28L78.7809 160.56L77.3249 163.082ZM85.3112 150.849L68.4341 141.105L69.0261 140.08L85.6261 149.664L84.9438 149.566C85.1806 149.284 85.3492 148.864 85.4496 148.306C85.5499 147.748 85.558 147.137 85.4736 146.472C85.3999 145.789 85.2228 145.157 84.9422 144.576C84.7562 144.173 84.5104 143.81 84.2049 143.486C83.8809 143.151 83.4972 142.855 83.0538 142.599C82.555 142.311 82.119 142.17 81.7458 142.177C81.3834 142.165 81.0848 142.362 80.8502 142.768C80.5195 143.341 80.4276 144.076 80.5744 144.974C80.7319 145.853 81.0259 146.688 81.4563 147.478L80.4149 146.914C79.8851 145.869 79.5613 144.894 79.4436 143.988C79.3259 143.083 79.4644 142.288 79.8591 141.605C80.2431 140.94 80.7833 140.537 81.4799 140.397C82.1764 140.258 82.9589 140.438 83.8272 140.94C84.8618 141.537 85.6188 142.381 86.0982 143.47C86.5776 144.56 86.7481 145.779 86.6098 147.128C86.5542 147.736 86.4339 148.307 86.2489 148.841C86.0825 149.385 85.8659 149.889 85.5992 150.35L85.3112 150.849Z" fill="white"/>
<path d="M57 258.339L54.472 258.339L54.472 249.475L57 249.475L57 258.339ZM47.048 257.859L44.456 257.859L44.456 251.395L47.048 251.395L47.048 257.859ZM34.44 259.971L34.44 257.059L57 257.059L57 259.971L34.44 259.971ZM34.44 258.019L34.44 249.795L36.968 249.795L36.968 258.019L34.44 258.019ZM57.8 246.571L38.312 246.571L38.312 245.387L57.48 245.387L56.84 245.643C56.904 245.28 56.84 244.832 56.648 244.299C56.456 243.766 56.1573 243.232 55.752 242.699C55.3467 242.144 54.8773 241.686 54.344 241.323C53.9813 241.067 53.5867 240.875 53.16 240.747C52.712 240.619 52.232 240.555 51.72 240.555C51.144 240.555 50.696 240.651 50.376 240.843C50.056 241.014 49.896 241.334 49.896 241.803C49.896 242.464 50.184 243.147 50.76 243.851C51.336 244.534 52.008 245.11 52.776 245.579L51.592 245.611C50.6107 244.971 49.8427 244.288 49.288 243.563C48.7333 242.838 48.456 242.08 48.456 241.291C48.456 240.523 48.7227 239.904 49.256 239.435C49.7893 238.966 50.5573 238.731 51.56 238.731C52.7547 238.731 53.832 239.083 54.792 239.787C55.752 240.491 56.5093 241.462 57.064 242.699C57.32 243.254 57.5013 243.808 57.608 244.363C57.736 244.918 57.8 245.462 57.8 245.995L57.8 246.571Z" fill="white"/>
<path d="M83.3458 356.37L81.1842 357.618L77.0882 350.524L79.2498 349.276L83.3458 356.37ZM65.1398 360.933L87.4293 354.419L88.8693 356.913L66.5798 363.427L65.1398 360.933ZM65.1078 360.877L81.8933 344.831L83.3173 347.297L66.5478 363.371L65.1078 360.877ZM81.2886 342.183L64.4115 351.927L63.8195 350.902L80.4195 341.318L79.9932 341.86C79.8673 341.514 79.5879 341.158 79.155 340.792C78.722 340.426 78.1967 340.113 77.579 339.854C76.9506 339.576 76.3148 339.414 75.6716 339.366C75.2296 339.326 74.7918 339.357 74.3583 339.46C73.9063 339.573 73.4586 339.757 73.0152 340.013C72.5163 340.301 72.1764 340.608 71.9952 340.935C71.8034 341.243 71.8249 341.6 72.0595 342.006C72.3902 342.579 72.981 343.026 73.8318 343.348C74.672 343.651 75.5419 343.814 76.4417 343.836L75.4323 344.456C74.2625 344.392 73.256 344.185 72.413 343.834C71.57 343.484 70.9511 342.966 70.5565 342.283C70.1725 341.618 70.0941 340.949 70.3213 340.275C70.5485 339.602 71.0963 339.015 71.9646 338.514C72.9992 337.916 74.1082 337.683 75.2916 337.812C76.475 337.942 77.6162 338.404 78.7152 339.198C79.2143 339.55 79.6486 339.94 80.0183 340.367C80.4065 340.784 80.7339 341.223 81.0006 341.685L81.2886 342.183Z" fill="white"/>
<path d="M152.338 423.382L147.042 432.555L144.52 431.099L149.816 421.926L152.338 423.382ZM161.011 421.479L159.747 423.669L157.003 422.085L158.267 419.895L161.011 421.479ZM150.995 438.827L149.731 441.017L146.987 439.433L148.251 437.243L150.995 438.827ZM150.995 438.827L149.731 441.017L146.987 439.433L148.251 437.243L150.995 438.827ZM144.52 431.099L147.042 432.555C146.487 433.515 146.319 434.404 146.538 435.22C146.756 436.036 147.327 436.71 148.251 437.243L146.987 439.433C145.916 438.814 145.101 438.048 144.544 437.136C143.958 436.231 143.664 435.248 143.661 434.187C143.647 433.144 143.933 432.115 144.52 431.099ZM149.8 421.953C150.397 420.919 151.151 420.147 152.061 419.637C152.97 419.128 153.969 418.892 155.056 418.928C156.125 418.954 157.196 419.277 158.267 419.895L157.003 422.085C156.079 421.551 155.21 421.394 154.394 421.613C153.567 421.85 152.876 422.449 152.322 423.409L149.8 421.953ZM162.784 422.503L151.504 442.041L148.982 440.585L160.262 421.047L162.784 422.503ZM150.281 414.361L140.537 431.238L139.512 430.646L149.096 414.046L148.997 414.728C148.715 414.491 148.295 414.323 147.737 414.222C147.18 414.122 146.568 414.114 145.904 414.198C145.221 414.272 144.589 414.449 144.008 414.73C143.605 414.916 143.241 415.162 142.917 415.467C142.582 415.791 142.287 416.175 142.031 416.618C141.743 417.117 141.602 417.553 141.608 417.926C141.596 418.289 141.793 418.587 142.2 418.822C142.773 419.152 143.508 419.244 144.405 419.098C145.285 418.94 146.119 418.646 146.91 418.216L146.346 419.257C145.301 419.787 144.326 420.111 143.42 420.228C142.515 420.346 141.72 420.208 141.036 419.813C140.371 419.429 139.969 418.889 139.829 418.192C139.689 417.495 139.87 416.713 140.371 415.845C140.969 414.81 141.812 414.053 142.902 413.574C143.992 413.094 145.211 412.924 146.56 413.062C147.168 413.118 147.739 413.238 148.273 413.423C148.817 413.589 149.32 413.806 149.782 414.073L150.281 414.361Z" fill="white"/>
<path d="M255.945 452.472L255.945 455L249.417 455L249.417 452.472L255.945 452.472ZM252.329 448.472L252.329 454.904L249.417 454.904L249.417 448.472L252.329 448.472ZM262.025 448.472L262.025 460.088L259.113 460.088L259.113 448.472L262.025 448.472ZM262.025 460.088C262.025 461.261 261.758 462.296 261.225 463.192C260.692 464.109 259.945 464.813 258.985 465.304C258.025 465.816 256.926 466.072 255.689 466.072L255.689 463.544C256.756 463.544 257.598 463.245 258.217 462.648C258.814 462.051 259.113 461.197 259.113 460.088L262.025 460.088ZM262.025 448.504L259.113 448.504C259.113 447.395 258.814 446.531 258.217 445.912C257.598 445.315 256.756 445.016 255.689 445.016L255.689 442.488C256.926 442.488 258.025 442.744 258.985 443.256C259.945 443.768 260.692 444.472 261.225 445.368C261.758 446.264 262.025 447.309 262.025 448.504ZM251.881 459.256C252.009 460.6 252.414 461.645 253.097 462.392C253.758 463.16 254.633 463.544 255.721 463.544L255.721 466.072C253.908 466.072 252.436 465.517 251.305 464.408C250.153 463.299 249.46 461.763 249.225 459.8L251.881 459.256ZM249.417 448.504C249.417 447.309 249.684 446.264 250.217 445.368C250.75 444.472 251.497 443.768 252.457 443.256C253.396 442.744 254.484 442.488 255.721 442.488L255.721 445.016C254.654 445.016 253.822 445.315 253.225 445.912C252.628 446.531 252.329 447.395 252.329 448.504L249.417 448.504ZM245.837 442.2L245.837 461.688L244.653 461.688L244.653 442.52L244.909 443.16C244.546 443.096 244.098 443.16 243.565 443.352C243.031 443.544 242.498 443.843 241.965 444.248C241.41 444.653 240.951 445.123 240.589 445.656C240.333 446.019 240.141 446.413 240.013 446.84C239.885 447.288 239.821 447.768 239.821 448.28C239.821 448.856 239.917 449.304 240.109 449.624C240.279 449.944 240.599 450.104 241.069 450.104C241.73 450.104 242.413 449.816 243.117 449.24C243.799 448.664 244.375 447.992 244.845 447.224L244.877 448.408C244.237 449.389 243.554 450.157 242.829 450.712C242.103 451.267 241.346 451.544 240.557 451.544C239.789 451.544 239.17 451.277 238.701 450.744C238.231 450.211 237.997 449.443 237.997 448.44C237.997 447.245 238.349 446.168 239.053 445.208C239.757 444.248 240.727 443.491 241.965 442.936C242.519 442.68 243.074 442.499 243.629 442.392C244.183 442.264 244.727 442.2 245.261 442.2L245.837 442.2Z" fill="white"/>
<path d="M352.767 425.755L353.951 427.806C353.028 428.339 352.467 429.032 352.27 429.885C352.072 430.738 352.262 431.663 352.838 432.661L350.316 434.117C349.74 433.119 349.463 432.085 349.484 431.013C349.498 429.97 349.788 428.978 350.352 428.036C350.928 427.113 351.733 426.352 352.767 425.755ZM349.882 415.19L351.146 417.379L348.458 418.931L347.194 416.742L349.882 415.19ZM355.098 424.224L356.362 426.414L353.674 427.966L352.41 425.776L355.098 424.224ZM347.249 423.62L347.633 424.286L345.111 425.742L344.727 425.076L347.249 423.62ZM347.617 424.258C348.203 425.274 348.915 425.91 349.753 426.165C350.601 426.439 351.486 426.31 352.41 425.776L353.594 427.827C352.56 428.425 351.493 428.732 350.395 428.75C349.297 428.769 348.288 428.514 347.367 427.986C346.428 427.469 345.671 426.711 345.095 425.714L347.617 424.258ZM359.898 432.538L361.162 434.728L358.751 436.12L357.487 433.93L359.898 432.538ZM350.3 434.089L352.822 432.633C353.376 433.594 354.062 434.184 354.878 434.402C355.694 434.621 356.564 434.464 357.487 433.93L358.751 436.12C357.68 436.738 356.61 437.061 355.541 437.087C354.464 437.142 353.465 436.905 352.545 436.377C351.635 435.868 350.887 435.105 350.3 434.089ZM344.743 425.104C344.145 424.07 343.854 423.031 343.868 421.988C343.881 420.946 344.176 419.963 344.751 419.039C345.308 418.126 346.123 417.361 347.194 416.742L348.458 418.931C347.534 419.465 346.963 420.139 346.745 420.955C346.537 421.79 346.71 422.687 347.265 423.648L344.743 425.104ZM351.711 414.134L362.991 433.672L360.47 435.128L349.19 415.59L351.711 414.134Z" fill="white"/>
<path d="M419.289 342.783L421.478 344.047L417.046 351.724L414.857 350.46L419.289 342.783ZM427.668 348.175L429.912 349.471L426.68 355.069L424.436 353.773L427.668 348.175ZM439.642 352.65L438.186 355.172L418.649 343.892L420.105 341.37L439.642 352.65ZM438.666 354.34L434.554 361.462L432.365 360.198L436.477 353.076L438.666 354.34Z" fill="white"/>
<path d="M447.512 246.254L450.008 246.254L450.008 254.446L447.512 254.446L447.512 246.254ZM465.56 251.406L443 245.902L443 243.022L465.56 248.526L465.56 251.406ZM465.56 251.47L443 256.974L443 254.126L465.56 248.59L465.56 251.47Z" fill="white"/>
<path d="M423.792 153.049L432.965 147.753L434.421 150.275L425.248 155.571L423.792 153.049ZM415.33 150.36L417.519 149.096L419.103 151.839L416.914 153.103L415.33 150.36ZM432.678 140.344L434.867 139.08L436.451 141.823L434.262 143.087L432.678 140.344ZM432.678 140.344L434.867 139.08L436.451 141.823L434.262 143.087L432.678 140.344ZM434.421 150.275L432.965 147.753C433.926 147.198 434.516 146.513 434.734 145.697C434.953 144.881 434.796 144.011 434.262 143.087L436.451 141.823C437.07 142.895 437.392 143.965 437.418 145.034C437.473 146.111 437.237 147.11 436.709 148.03C436.2 148.94 435.437 149.688 434.421 150.275ZM425.276 155.555C424.241 156.152 423.203 156.444 422.16 156.43C421.117 156.416 420.134 156.122 419.211 155.546C418.298 154.989 417.533 154.175 416.914 153.103L419.103 151.839C419.637 152.763 420.311 153.334 421.127 153.553C421.962 153.761 422.859 153.588 423.82 153.033L425.276 155.555ZM414.306 148.586L433.843 137.306L435.299 139.828L415.762 151.108L414.306 148.586Z" fill="white"/>
<path d="M351.324 74.705L352.588 72.5157L358.242 75.7797L356.978 77.969L351.324 74.705ZM352.456 79.9771L355.672 74.4068L358.194 75.8628L354.978 81.4331L352.456 79.9771ZM344.059 75.1291L349.867 65.0693L352.389 66.5253L346.581 76.5851L344.059 75.1291ZM349.867 65.0693C350.453 64.0532 351.202 63.2905 352.112 62.7812C353.032 62.2534 354.031 62.0171 355.107 62.0721C356.195 62.1087 357.274 62.4364 358.346 63.055L357.082 65.2444C356.158 64.711 355.279 64.5483 354.445 64.7563C353.629 64.975 352.943 65.5646 352.389 66.5253L349.867 65.0693ZM344.075 75.1014L346.597 76.5574C346.042 77.5181 345.869 78.4157 346.077 79.2501C346.314 80.0768 346.894 80.7567 347.818 81.2901L346.554 83.4794C345.482 82.8607 344.659 82.0897 344.083 81.1663C343.508 80.2429 343.213 79.2599 343.2 78.2172C343.186 77.1746 343.477 76.136 344.075 75.1014ZM358.236 70.8619C358.797 69.6339 358.968 68.526 358.751 67.538C358.562 66.5422 357.996 65.7724 357.054 65.2284L358.318 63.039C359.888 63.9457 360.886 65.1621 361.31 66.6881C361.753 68.2248 361.586 69.9017 360.808 71.7188L358.236 70.8619ZM354.994 81.4054C354.396 82.44 353.643 83.2119 352.733 83.7212C351.823 84.2305 350.824 84.4669 349.737 84.4303C348.668 84.4043 347.598 84.0821 346.526 83.4634L347.79 81.2741C348.714 81.8074 349.584 81.9648 350.4 81.7461C351.226 81.509 351.917 80.9101 352.472 79.9494L354.994 81.4054Z" fill="white"/>
<path d="M234.286 123.488V120.992H242.478V123.488H234.286ZM239.438 105.44L233.934 128H231.054L236.558 105.44H239.438ZM239.502 105.44L245.006 128H242.158L236.622 105.44H239.502ZM247.889 128V111.84H250.801V128H247.889ZM256.241 128V116.992H259.153V128H256.241ZM249.489 117.056C249.489 115.968 249.691 114.997 250.097 114.144C250.523 113.269 251.099 112.587 251.825 112.096C252.55 111.605 253.361 111.36 254.257 111.36L253.521 113.952C252.753 113.952 252.102 114.24 251.569 114.816C251.057 115.392 250.801 116.139 250.801 117.056H249.489ZM256.241 116.992C256.241 116.096 255.985 115.371 255.473 114.816C254.961 114.24 254.31 113.952 253.521 113.952L254.257 111.36C255.195 111.36 256.027 111.605 256.753 112.096C257.499 112.587 258.086 113.259 258.513 114.112C258.939 114.944 259.153 115.904 259.153 116.992H256.241ZM264.561 128V116.992H267.473V128H264.561ZM257.841 117.056C257.841 115.968 258.043 114.997 258.449 114.144C258.875 113.269 259.441 112.587 260.145 112.096C260.87 111.605 261.681 111.36 262.577 111.36L261.841 113.952C261.073 113.952 260.433 114.24 259.921 114.816C259.409 115.392 259.153 116.139 259.153 117.056H257.841ZM264.561 116.992C264.561 116.096 264.305 115.371 263.793 114.816C263.302 114.24 262.651 113.952 261.841 113.952L262.577 111.36C263.515 111.36 264.347 111.605 265.073 112.096C265.819 112.587 266.406 113.259 266.833 114.112C267.259 114.944 267.473 115.904 267.473 116.992H264.561Z" fill="white"/>
<path d="M178.184 143.68L172.888 134.507L175.41 133.051L180.706 142.224L178.184 143.68ZM175.495 152.142L174.231 149.953L176.974 148.369L178.238 150.558L175.495 152.142ZM165.479 134.794L164.215 132.605L166.958 131.021L168.222 133.21L165.479 134.794ZM165.479 134.794L164.215 132.605L166.958 131.021L168.222 133.21L165.479 134.794ZM175.41 133.051L172.888 134.507C172.333 133.546 171.648 132.957 170.832 132.738C170.016 132.519 169.146 132.677 168.222 133.21L166.958 131.021C168.03 130.402 169.1 130.08 170.169 130.054C171.246 129.999 172.244 130.235 173.165 130.763C174.075 131.272 174.823 132.035 175.41 133.051ZM180.69 142.196C181.287 143.231 181.579 144.269 181.565 145.312C181.551 146.355 181.256 147.338 180.681 148.261C180.124 149.174 179.31 149.939 178.238 150.558L176.974 148.369C177.898 147.836 178.469 147.161 178.688 146.345C178.896 145.51 178.723 144.613 178.168 143.652L180.69 142.196ZM173.721 153.166L162.441 133.629L164.963 132.173L176.243 151.71L173.721 153.166ZM186.874 145.572L178.794 131.577L181.316 130.121L189.396 144.116L186.874 145.572ZM194.107 141.396L188.603 131.863L191.125 130.407L196.629 139.94L194.107 141.396ZM182.788 135.295C182.244 134.352 181.934 133.41 181.858 132.469C181.79 131.498 181.948 130.619 182.331 129.831C182.713 129.044 183.293 128.426 184.069 127.978L184.727 130.59C184.062 130.974 183.643 131.549 183.469 132.315C183.313 133.07 183.465 133.844 183.924 134.639L182.788 135.295ZM188.603 131.863C188.155 131.087 187.571 130.587 186.85 130.363C186.118 130.12 185.411 130.196 184.727 130.59L184.069 127.978C184.882 127.508 185.725 127.305 186.598 127.367C187.49 127.419 188.334 127.707 189.131 128.233C189.916 128.74 190.581 129.465 191.125 130.407L188.603 131.863ZM201.312 137.236L195.808 127.703L198.33 126.247L203.834 135.78L201.312 137.236ZM190.021 131.119C189.477 130.176 189.167 129.234 189.091 128.293C189.023 127.322 189.172 126.448 189.536 125.671C189.919 124.884 190.498 124.266 191.274 123.818L191.933 126.43C191.268 126.814 190.857 127.384 190.702 128.139C190.547 128.894 190.698 129.668 191.157 130.463L190.021 131.119ZM195.808 127.703C195.36 126.927 194.776 126.427 194.055 126.203C193.342 125.949 192.635 126.025 191.933 126.43L191.274 123.818C192.087 123.348 192.93 123.145 193.804 123.207C194.696 123.259 195.54 123.547 196.336 124.073C197.121 124.58 197.786 125.305 198.33 126.247L195.808 127.703Z" fill="white"/>
<path d="M129.708 195.407L127.519 194.143L130.783 188.49L132.972 189.754L129.708 195.407ZM134.981 194.276L129.41 191.06L130.866 188.538L136.437 191.754L134.981 194.276ZM130.133 202.672L120.073 196.864L121.529 194.343L131.589 200.151L130.133 202.672ZM120.073 196.864C119.057 196.278 118.294 195.53 117.785 194.62C117.257 193.699 117.021 192.7 117.076 191.624C117.112 190.536 117.44 189.457 118.059 188.385L120.248 189.649C119.714 190.573 119.552 191.452 119.76 192.287C119.978 193.103 120.568 193.788 121.529 194.343L120.073 196.864ZM130.105 202.656L131.561 200.135C132.522 200.689 133.419 200.863 134.254 200.655C135.08 200.418 135.76 199.837 136.294 198.913L138.483 200.177C137.864 201.249 137.093 202.072 136.17 202.648C135.246 203.223 134.263 203.518 133.221 203.532C132.178 203.546 131.139 203.254 130.105 202.656ZM125.865 188.496C124.637 187.934 123.529 187.763 122.541 187.981C121.546 188.169 120.776 188.735 120.232 189.677L118.043 188.413C118.949 186.843 120.166 185.845 121.692 185.421C123.228 184.978 124.905 185.145 126.722 185.923L125.865 188.496ZM136.409 191.738C137.443 192.335 138.215 193.089 138.725 193.998C139.234 194.908 139.47 195.907 139.434 196.994C139.408 198.063 139.086 199.134 138.467 200.205L136.278 198.941C136.811 198.017 136.968 197.147 136.75 196.331C136.512 195.505 135.914 194.814 134.953 194.26L136.409 191.738ZM143.11 191.14L129.115 183.06L130.571 180.538L144.566 188.618L143.11 191.14ZM147.286 183.907L137.752 178.403L139.208 175.881L148.742 181.385L147.286 183.907ZM134.432 184.282C133.49 183.738 132.75 183.077 132.214 182.299C131.67 181.493 131.367 180.652 131.304 179.779C131.242 178.905 131.435 178.081 131.883 177.305L133.76 179.238C133.376 179.903 133.3 180.611 133.532 181.361C133.775 182.092 134.293 182.687 135.088 183.146L134.432 184.282ZM137.752 178.403C136.976 177.955 136.22 177.814 135.484 177.98C134.729 178.135 134.154 178.555 133.76 179.238L131.883 177.305C132.352 176.492 132.981 175.894 133.768 175.511C134.567 175.11 135.442 174.938 136.394 174.995C137.328 175.041 138.266 175.337 139.208 175.881L137.752 178.403ZM151.446 176.701L141.912 171.197L143.368 168.675L152.902 174.179L151.446 176.701ZM138.608 177.049C137.666 176.505 136.926 175.844 136.39 175.066C135.846 174.26 135.537 173.429 135.464 172.574C135.402 171.7 135.595 170.875 136.043 170.099L137.92 172.033C137.536 172.698 137.465 173.396 137.708 174.128C137.951 174.859 138.469 175.454 139.264 175.913L138.608 177.049ZM141.912 171.197C141.136 170.749 140.38 170.608 139.644 170.774C138.9 170.911 138.325 171.331 137.92 172.033L136.043 170.099C136.512 169.287 137.141 168.689 137.928 168.306C138.727 167.905 139.602 167.732 140.554 167.79C141.488 167.836 142.426 168.131 143.368 168.675L141.912 171.197Z" fill="white"/>
<path d="M122.528 268.056L110.912 268.056L110.912 265.144L122.528 265.144L122.528 268.056ZM110.912 268.056C109.739 268.056 108.704 267.79 107.808 267.256C106.891 266.723 106.187 265.976 105.696 265.016C105.184 264.056 104.928 262.958 104.928 261.72L107.456 261.72C107.456 262.787 107.755 263.63 108.352 264.248C108.949 264.846 109.803 265.144 110.912 265.144L110.912 268.056ZM122.496 268.056L122.496 265.144C123.605 265.144 124.469 264.846 125.088 264.248C125.685 263.63 125.984 262.787 125.984 261.72L128.512 261.72C128.512 262.958 128.256 264.056 127.744 265.016C127.232 265.976 126.528 266.723 125.632 267.256C124.736 267.79 123.691 268.056 122.496 268.056ZM111.744 257.912C110.4 258.04 109.355 258.446 108.608 259.128C107.84 259.79 107.456 260.664 107.456 261.752L104.928 261.752C104.928 259.939 105.483 258.467 106.592 257.336C107.701 256.184 109.237 255.491 111.2 255.256L111.744 257.912ZM121.696 257.912L122.208 255.256C124.192 255.491 125.739 256.184 126.848 257.336C127.957 258.467 128.512 259.939 128.512 261.752L125.984 261.752C125.984 260.664 125.611 259.79 124.864 259.128C124.096 258.446 123.04 258.04 121.696 257.912ZM128 252.361L111.84 252.361L111.84 249.449L128 249.449L128 252.361ZM128 244.009L116.992 244.009L116.992 241.097L128 241.097L128 244.009ZM117.056 250.761C115.968 250.761 114.997 250.559 114.144 250.153C113.269 249.727 112.587 249.151 112.096 248.425C111.605 247.7 111.36 246.889 111.36 245.993L113.952 246.729C113.952 247.497 114.24 248.148 114.816 248.681C115.392 249.193 116.139 249.449 117.056 249.449L117.056 250.761ZM116.992 244.009C116.096 244.009 115.371 244.265 114.816 244.777C114.24 245.289 113.952 245.94 113.952 246.729L111.36 245.993C111.36 245.055 111.605 244.223 112.096 243.497C112.587 242.751 113.259 242.164 114.112 241.737C114.944 241.311 115.904 241.097 116.992 241.097L116.992 244.009ZM128 235.689L116.992 235.689L116.992 232.777L128 232.777L128 235.689ZM117.056 242.409C115.968 242.409 114.997 242.207 114.144 241.801C113.269 241.375 112.587 240.809 112.096 240.105C111.605 239.38 111.36 238.569 111.36 237.673L113.952 238.409C113.952 239.177 114.24 239.817 114.816 240.329C115.392 240.841 116.139 241.097 117.056 241.097L117.056 242.409ZM116.992 235.689C116.096 235.689 115.371 235.945 114.816 236.457C114.24 236.948 113.952 237.599 113.952 238.409L111.36 237.673C111.36 236.735 111.605 235.903 112.096 235.177C112.587 234.431 113.259 233.844 114.112 233.417C114.944 232.991 115.904 232.777 116.992 232.777L116.992 235.689Z" fill="white"/>
<path d="M143.132 328.803L140.887 330.099L137.655 324.501L139.9 323.205L143.132 328.803ZM133.269 336.936L131.813 334.415L151.351 323.135L152.807 325.656L133.269 336.936ZM132.293 335.246L128.181 328.124L130.371 326.86L134.483 333.982L132.293 335.246ZM146.432 314.615L132.437 322.695L130.981 320.173L144.976 312.093L146.432 314.615ZM142.256 307.382L132.723 312.886L131.267 310.364L140.8 304.86L142.256 307.382ZM136.154 318.701C135.212 319.245 134.27 319.555 133.328 319.63C132.357 319.698 131.478 319.541 130.691 319.158C129.903 318.775 129.285 318.196 128.837 317.42L131.45 316.761C131.834 317.426 132.409 317.846 133.174 318.02C133.929 318.175 134.704 318.023 135.498 317.565L136.154 318.701ZM132.723 312.886C131.947 313.334 131.446 313.918 131.222 314.639C130.979 315.37 131.055 316.078 131.45 316.761L128.837 317.42C128.368 316.607 128.164 315.764 128.227 314.89C128.278 313.998 128.567 313.154 129.092 312.358C129.6 311.572 130.324 310.908 131.267 310.364L132.723 312.886ZM138.096 300.176L128.563 305.68L127.107 303.158L136.64 297.654L138.096 300.176ZM131.978 311.468C131.036 312.012 130.094 312.322 129.152 312.397C128.181 312.465 127.307 312.317 126.531 311.953C125.743 311.57 125.125 310.99 124.677 310.214L127.29 309.556C127.674 310.221 128.243 310.631 128.998 310.787C129.753 310.942 130.528 310.79 131.322 310.332L131.978 311.468ZM128.563 305.68C127.787 306.128 127.286 306.713 127.062 307.433C126.809 308.146 126.885 308.854 127.29 309.556L124.677 310.214C124.208 309.402 124.004 308.558 124.067 307.685C124.118 306.793 124.407 305.949 124.932 305.153C125.44 304.367 126.164 303.702 127.107 303.158L128.563 305.68Z" fill="white"/>
<path d="M199.411 373.897L198.227 375.947C197.303 375.414 196.423 375.275 195.586 375.531C194.748 375.786 194.042 376.413 193.466 377.411L190.944 375.955C191.52 374.957 192.277 374.2 193.216 373.683C194.126 373.173 195.13 372.928 196.228 372.946C197.316 372.982 198.377 373.299 199.411 373.897ZM207.118 366.116L205.854 368.305L203.166 366.753L204.43 364.564L207.118 366.116ZM201.902 375.15L200.638 377.339L197.95 375.787L199.214 373.598L201.902 375.15ZM198.501 368.05L198.117 368.715L195.595 367.259L195.979 366.594L198.501 368.05ZM198.133 368.687C197.546 369.704 197.351 370.638 197.549 371.491C197.735 372.362 198.29 373.065 199.214 373.598L198.03 375.649C196.996 375.051 196.196 374.282 195.631 373.34C195.066 372.398 194.782 371.397 194.779 370.336C194.758 369.264 195.035 368.229 195.611 367.231L198.133 368.687ZM197.102 383.464L195.838 385.653L193.427 384.261L194.691 382.072L197.102 383.464ZM190.96 375.927L193.482 377.383C192.927 378.344 192.759 379.232 192.978 380.048C193.196 380.864 193.767 381.539 194.691 382.072L193.427 384.261C192.356 383.643 191.541 382.877 190.985 381.964C190.398 381.059 190.104 380.076 190.101 379.015C190.087 377.972 190.373 376.943 190.96 375.927ZM195.963 366.622C196.56 365.587 197.314 364.815 198.224 364.306C199.133 363.797 200.132 363.56 201.219 363.597C202.288 363.623 203.359 363.945 204.43 364.564L203.166 366.753C202.242 366.22 201.373 366.062 200.557 366.281C199.73 366.518 199.039 367.117 198.485 368.078L195.963 366.622ZM208.947 367.172L197.667 386.709L195.145 385.253L206.425 365.716L208.947 367.172ZM196.715 359.185L186.971 376.062L185.945 375.47L195.529 358.871L195.431 359.553C195.149 359.316 194.729 359.147 194.171 359.047C193.613 358.947 193.002 358.939 192.337 359.023C191.654 359.097 191.022 359.274 190.442 359.554C190.039 359.74 189.675 359.986 189.351 360.292C189.016 360.616 188.721 360.999 188.465 361.443C188.177 361.942 188.036 362.378 188.042 362.751C188.03 363.113 188.227 363.412 188.633 363.646C189.206 363.977 189.941 364.069 190.839 363.922C191.718 363.765 192.553 363.471 193.344 363.04L192.779 364.082C191.734 364.612 190.759 364.935 189.854 365.053C188.948 365.171 188.154 365.032 187.47 364.638C186.805 364.254 186.402 363.713 186.263 363.017C186.123 362.32 186.304 361.538 186.805 360.669C187.402 359.635 188.246 358.878 189.335 358.398C190.425 357.919 191.644 357.748 192.993 357.887C193.602 357.942 194.173 358.063 194.706 358.248C195.251 358.414 195.754 358.631 196.216 358.897L196.715 359.185ZM186.458 354.187L178.378 368.182L175.856 366.726L183.936 352.731L186.458 354.187ZM179.225 350.011L173.721 359.545L171.199 358.089L176.703 348.555L179.225 350.011ZM179.6 362.865C179.056 363.807 178.395 364.547 177.618 365.083C176.811 365.627 175.971 365.93 175.097 365.993C174.224 366.055 173.399 365.862 172.623 365.414L174.556 363.537C175.221 363.921 175.929 363.997 176.679 363.765C177.41 363.522 178.005 363.004 178.464 362.209L179.6 362.865ZM173.721 359.545C173.273 360.32 173.132 361.077 173.298 361.813C173.453 362.568 173.873 363.143 174.556 363.537L172.623 365.414C171.81 364.945 171.212 364.316 170.829 363.529C170.428 362.73 170.256 361.855 170.313 360.903C170.36 359.969 170.655 359.031 171.199 358.089L173.721 359.545ZM172.019 345.851L166.515 355.385L163.993 353.929L169.497 344.395L172.019 345.851ZM172.367 358.689C171.823 359.631 171.162 360.371 170.384 360.907C169.578 361.451 168.747 361.76 167.892 361.833C167.018 361.895 166.193 361.702 165.418 361.254L167.351 359.377C168.016 359.761 168.714 359.832 169.446 359.589C170.177 359.346 170.772 358.828 171.231 358.033L172.367 358.689ZM166.515 355.385C166.067 356.16 165.926 356.917 166.092 357.653C166.229 358.397 166.649 358.972 167.351 359.377L165.418 361.254C164.605 360.785 164.007 360.156 163.624 359.369C163.223 358.57 163.051 357.695 163.108 356.743C163.154 355.809 163.449 354.871 163.993 353.929L166.515 355.385Z" fill="white"/>
<path d="M271.307 372L271.307 374.528L262.443 374.528L262.443 372L271.307 372ZM270.827 381.952L270.827 384.544L264.363 384.544L264.363 381.952L270.827 381.952ZM272.939 394.56L270.027 394.56L270.027 372L272.939 372L272.939 394.56ZM270.987 394.56L262.763 394.56L262.763 392.032L270.987 392.032L270.987 394.56ZM259.54 371.2L259.54 390.688L258.356 390.688L258.356 371.52L258.612 372.16C258.249 372.096 257.801 372.16 257.268 372.352C256.735 372.544 256.201 372.843 255.668 373.248C255.113 373.653 254.655 374.123 254.292 374.656C254.036 375.019 253.844 375.413 253.716 375.84C253.588 376.288 253.524 376.768 253.524 377.28C253.524 377.856 253.62 378.304 253.812 378.624C253.983 378.944 254.303 379.104 254.772 379.104C255.433 379.104 256.116 378.816 256.82 378.24C257.503 377.664 258.079 376.992 258.548 376.224L258.58 377.408C257.94 378.389 257.257 379.157 256.532 379.712C255.807 380.267 255.049 380.544 254.26 380.544C253.492 380.544 252.873 380.277 252.404 379.744C251.935 379.211 251.7 378.443 251.7 377.44C251.7 376.245 252.052 375.168 252.756 374.208C253.46 373.248 254.431 372.491 255.668 371.936C256.223 371.68 256.777 371.499 257.332 371.392C257.887 371.264 258.431 371.2 258.964 371.2L259.54 371.2ZM248.158 372L248.158 388.16L245.246 388.16L245.246 372L248.158 372ZM239.806 372L239.806 383.008L236.894 383.008L236.894 372L239.806 372ZM246.558 382.944C246.558 384.032 246.356 385.003 245.95 385.856C245.524 386.731 244.948 387.413 244.222 387.904C243.497 388.395 242.686 388.64 241.79 388.64L242.526 386.048C243.294 386.048 243.945 385.76 244.478 385.184C244.99 384.608 245.246 383.861 245.246 382.944L246.558 382.944ZM239.806 383.008C239.806 383.904 240.062 384.629 240.574 385.184C241.086 385.76 241.737 386.048 242.526 386.048L241.79 388.64C240.852 388.64 240.02 388.395 239.294 387.904C238.548 387.413 237.961 386.741 237.534 385.888C237.108 385.056 236.894 384.096 236.894 383.008L239.806 383.008ZM231.486 372L231.486 383.008L228.574 383.008L228.574 372L231.486 372ZM238.206 382.944C238.206 384.032 238.004 385.003 237.598 385.856C237.172 386.731 236.606 387.413 235.902 387.904C235.177 388.395 234.366 388.64 233.47 388.64L234.206 386.048C234.974 386.048 235.614 385.76 236.126 385.184C236.638 384.608 236.894 383.861 236.894 382.944L238.206 382.944ZM231.486 383.008C231.486 383.904 231.742 384.629 232.254 385.184C232.745 385.76 233.396 386.048 234.206 386.048L233.47 388.64C232.532 388.64 231.7 388.395 230.974 387.904C230.228 387.413 229.641 386.741 229.214 385.888C228.788 385.056 228.574 384.096 228.574 383.008L231.486 383.008Z" fill="white"/>
<path d="M332.102 348.682L333.35 350.844L326.255 354.94L325.007 352.778L332.102 348.682ZM336.664 366.888L330.151 344.598L332.645 343.158L339.158 365.448L336.664 366.888ZM336.609 366.92L320.562 350.134L323.028 348.71L339.103 365.48L336.609 366.92ZM317.915 350.739L327.659 367.616L326.633 368.208L317.049 351.608L317.591 352.035C317.245 352.16 316.889 352.44 316.523 352.873C316.157 353.306 315.845 353.831 315.585 354.449C315.308 355.077 315.145 355.713 315.098 356.356C315.057 356.798 315.088 357.236 315.191 357.67C315.304 358.121 315.489 358.569 315.745 359.013C316.033 359.511 316.34 359.851 316.666 360.033C316.974 360.224 317.331 360.203 317.737 359.968C318.31 359.638 318.757 359.047 319.079 358.196C319.382 357.356 319.545 356.486 319.568 355.586L320.187 356.595C320.124 357.765 319.916 358.772 319.566 359.615C319.215 360.458 318.698 361.077 318.014 361.471C317.349 361.855 316.68 361.934 316.007 361.706C315.334 361.479 314.746 360.931 314.245 360.063C313.648 359.029 313.414 357.92 313.544 356.736C313.673 355.553 314.135 354.412 314.929 353.313C315.282 352.814 315.671 352.379 316.098 352.009C316.515 351.621 316.954 351.294 317.416 351.027L317.915 350.739ZM308.458 357.123L316.538 371.118L314.016 372.574L305.936 358.579L308.458 357.123ZM301.225 361.299L306.729 370.832L304.207 372.288L298.703 362.755L301.225 361.299ZM312.544 367.401C313.088 368.343 313.398 369.285 313.474 370.227C313.541 371.197 313.384 372.077 313.001 372.864C312.618 373.652 312.039 374.27 311.263 374.718L310.604 372.105C311.269 371.721 311.689 371.146 311.863 370.381C312.018 369.626 311.867 368.851 311.408 368.057L312.544 367.401ZM306.729 370.832C307.177 371.608 307.761 372.108 308.482 372.333C309.213 372.575 309.921 372.499 310.604 372.105L311.263 374.718C310.45 375.187 309.607 375.39 308.733 375.328C307.841 375.277 306.997 374.988 306.201 374.462C305.416 373.955 304.751 373.23 304.207 372.288L306.729 370.832ZM294.019 365.459L299.523 374.992L297.002 376.448L291.498 366.915L294.019 365.459ZM305.311 371.577C305.855 372.519 306.165 373.461 306.241 374.403C306.308 375.373 306.16 376.247 305.796 377.024C305.413 377.812 304.834 378.43 304.058 378.878L303.399 376.265C304.064 375.881 304.474 375.311 304.63 374.557C304.785 373.802 304.634 373.027 304.175 372.233L305.311 371.577ZM299.523 374.992C299.971 375.768 300.556 376.268 301.276 376.493C301.989 376.746 302.697 376.67 303.399 376.265L304.058 378.878C303.245 379.347 302.401 379.55 301.528 379.488C300.636 379.437 299.792 379.148 298.996 378.622C298.21 378.115 297.546 377.39 297.002 376.448L299.523 374.992Z" fill="white"/>
<path d="M368.378 300.931L377.551 306.227L376.095 308.749L366.922 303.453L368.378 300.931ZM366.476 292.258L368.665 293.522L367.081 296.265L364.892 295.001L366.476 292.258ZM383.824 302.274L386.013 303.538L384.429 306.281L382.24 305.017L383.824 302.274ZM383.824 302.274L386.013 303.538L384.429 306.281L382.24 305.017L383.824 302.274ZM376.095 308.749L377.551 306.227C378.512 306.782 379.4 306.95 380.216 306.731C381.032 306.512 381.707 305.941 382.24 305.017L384.429 306.281C383.811 307.353 383.045 308.167 382.132 308.724C381.227 309.31 380.244 309.605 379.183 309.608C378.141 309.622 377.111 309.336 376.095 308.749ZM366.95 303.469C365.915 302.872 365.143 302.118 364.634 301.208C364.125 300.298 363.888 299.3 363.925 298.212C363.951 297.143 364.273 296.073 364.892 295.001L367.081 296.265C366.548 297.189 366.39 298.059 366.609 298.875C366.846 299.702 367.445 300.392 368.406 300.947L366.95 303.469ZM367.5 290.484L387.037 301.764L385.581 304.286L366.044 293.006L367.5 290.484ZM359.357 302.988L376.234 312.732L375.642 313.757L359.042 304.173L359.725 304.271C359.488 304.553 359.319 304.973 359.219 305.531C359.119 306.089 359.111 306.7 359.195 307.365C359.269 308.048 359.446 308.68 359.726 309.261C359.912 309.664 360.158 310.027 360.464 310.351C360.788 310.686 361.171 310.982 361.615 311.238C362.114 311.526 362.549 311.667 362.923 311.66C363.285 311.672 363.584 311.475 363.818 311.069C364.149 310.496 364.241 309.761 364.094 308.863C363.937 307.984 363.643 307.149 363.212 306.359L364.254 306.923C364.783 307.968 365.107 308.943 365.225 309.849C365.343 310.754 365.204 311.549 364.809 312.232C364.425 312.897 363.885 313.3 363.189 313.44C362.492 313.579 361.71 313.399 360.841 312.897C359.807 312.3 359.05 311.456 358.57 310.367C358.091 309.277 357.92 308.058 358.059 306.709C358.114 306.101 358.235 305.53 358.42 304.996C358.586 304.451 358.803 303.948 359.069 303.486L359.357 302.988ZM354.359 313.245L368.354 321.325L366.898 323.846L352.903 315.766L354.359 313.245ZM350.183 320.478L359.716 325.982L358.26 328.503L348.727 322.999L350.183 320.478ZM363.037 320.102C363.979 320.646 364.719 321.307 365.255 322.085C365.799 322.892 366.102 323.732 366.164 324.605C366.227 325.479 366.034 326.303 365.586 327.079L363.709 325.146C364.093 324.481 364.169 323.773 363.937 323.024C363.694 322.292 363.175 321.697 362.381 321.238L363.037 320.102ZM359.716 325.982C360.492 326.43 361.249 326.571 361.985 326.404C362.74 326.249 363.314 325.83 363.709 325.146L365.586 327.079C365.117 327.892 364.488 328.49 363.7 328.873C362.902 329.274 362.027 329.446 361.075 329.389C360.141 329.343 359.203 329.047 358.26 328.503L359.716 325.982ZM346.023 327.683L355.556 333.187L354.1 335.709L344.567 330.205L346.023 327.683ZM358.861 327.335C359.803 327.879 360.543 328.54 361.079 329.318C361.623 330.125 361.932 330.956 362.004 331.811C362.067 332.684 361.874 333.509 361.426 334.285L359.549 332.351C359.933 331.686 360.004 330.988 359.761 330.257C359.518 329.525 358.999 328.93 358.205 328.471L358.861 327.335ZM355.556 333.187C356.332 333.635 357.089 333.776 357.825 333.61C358.569 333.473 359.144 333.053 359.549 332.351L361.426 334.285C360.957 335.098 360.328 335.695 359.54 336.078C358.742 336.48 357.867 336.652 356.915 336.595C355.981 336.548 355.043 336.253 354.1 335.709L355.556 333.187Z" fill="white"/>
<path d="M381.472 232.086L384 232.086L384 238.614L381.472 238.614L381.472 232.086ZM377.472 235.702L383.904 235.702L383.904 238.614L377.472 238.614L377.472 235.702ZM377.472 226.006L389.088 226.006L389.088 228.918L377.472 228.918L377.472 226.006ZM389.088 226.006C390.261 226.006 391.296 226.273 392.192 226.806C393.109 227.339 393.813 228.086 394.304 229.046C394.816 230.006 395.072 231.105 395.072 232.342L392.544 232.342C392.544 231.275 392.245 230.433 391.648 229.814C391.051 229.217 390.197 228.918 389.088 228.918L389.088 226.006ZM377.504 226.006L377.504 228.918C376.395 228.918 375.531 229.217 374.912 229.814C374.315 230.433 374.016 231.275 374.016 232.342L371.488 232.342C371.488 231.105 371.744 230.006 372.256 229.046C372.768 228.086 373.472 227.339 374.368 226.806C375.264 226.273 376.309 226.006 377.504 226.006ZM388.256 236.15C389.6 236.022 390.645 235.617 391.392 234.934C392.16 234.273 392.544 233.398 392.544 232.31L395.072 232.31C395.072 234.123 394.517 235.595 393.408 236.726C392.299 237.878 390.763 238.571 388.8 238.806L388.256 236.15ZM377.504 238.614C376.309 238.614 375.264 238.347 374.368 237.814C373.472 237.281 372.768 236.534 372.256 235.574C371.744 234.635 371.488 233.547 371.488 232.31L374.016 232.31C374.016 233.377 374.315 234.209 374.912 234.806C375.531 235.403 376.395 235.702 377.504 235.702L377.504 238.614ZM371.2 242.194L390.688 242.194L390.688 243.378L371.52 243.378L372.16 243.122C372.096 243.485 372.16 243.933 372.352 244.466C372.544 245 372.843 245.533 373.248 246.066C373.653 246.621 374.123 247.08 374.656 247.442C375.019 247.698 375.413 247.89 375.84 248.018C376.288 248.146 376.768 248.21 377.28 248.21C377.856 248.21 378.304 248.114 378.624 247.922C378.944 247.752 379.104 247.432 379.104 246.962C379.104 246.301 378.816 245.618 378.24 244.914C377.664 244.232 376.992 243.656 376.224 243.186L377.408 243.154C378.389 243.794 379.157 244.477 379.712 245.202C380.267 245.928 380.544 246.685 380.544 247.474C380.544 248.242 380.277 248.861 379.744 249.33C379.211 249.8 378.443 250.034 377.44 250.034C376.245 250.034 375.168 249.682 374.208 248.978C373.248 248.274 372.491 247.304 371.936 246.066C371.68 245.512 371.499 244.957 371.392 244.402C371.264 243.848 371.2 243.304 371.2 242.77L371.2 242.194ZM372 253.576L388.16 253.576L388.16 256.488L372 256.488L372 253.576ZM372 261.928L383.008 261.928L383.008 264.84L372 264.84L372 261.928ZM382.944 255.176C384.032 255.176 385.003 255.379 385.856 255.784C386.731 256.211 387.413 256.787 387.904 257.512C388.395 258.237 388.64 259.048 388.64 259.944L386.048 259.208C386.048 258.44 385.76 257.789 385.184 257.256C384.608 256.744 383.861 256.488 382.944 256.488L382.944 255.176ZM383.008 261.928C383.904 261.928 384.629 261.672 385.184 261.16C385.76 260.648 386.048 259.997 386.048 259.208L388.64 259.944C388.64 260.883 388.395 261.715 387.904 262.44C387.413 263.187 386.741 263.773 385.888 264.2C385.056 264.627 384.096 264.84 383.008 264.84L383.008 261.928ZM372 270.248L383.008 270.248L383.008 273.16L372 273.16L372 270.248ZM382.944 263.528C384.032 263.528 385.003 263.731 385.856 264.136C386.731 264.563 387.413 265.128 387.904 265.832C388.395 266.557 388.64 267.368 388.64 268.264L386.048 267.528C386.048 266.76 385.76 266.12 385.184 265.608C384.608 265.096 383.861 264.84 382.944 264.84L382.944 263.528ZM383.008 270.248C383.904 270.248 384.629 269.992 385.184 269.48C385.76 268.989 386.048 268.339 386.048 267.528L388.64 268.264C388.64 269.203 388.395 270.035 387.904 270.76C387.413 271.507 386.741 272.093 385.888 272.52C385.056 272.947 384.096 273.16 383.008 273.16L383.008 270.248Z" fill="white"/>
<path d="M358.283 172.367L360.334 171.183C360.867 172.107 361.56 172.668 362.413 172.865C363.266 173.062 364.191 172.873 365.189 172.297L366.645 174.819C365.647 175.395 364.612 175.672 363.541 175.65C362.498 175.636 361.506 175.347 360.564 174.782C359.641 174.207 358.88 173.402 358.283 172.367ZM347.718 175.252L349.907 173.988L351.459 176.677L349.27 177.941L347.718 175.252ZM356.752 170.036L358.942 168.772L360.494 171.461L358.304 172.725L356.752 170.036ZM356.148 177.886L356.813 177.502L358.269 180.024L357.604 180.408L356.148 177.886ZM356.786 177.518C357.802 176.931 358.438 176.219 358.693 175.382C358.967 174.534 358.838 173.648 358.304 172.725L360.355 171.541C360.952 172.575 361.26 173.642 361.278 174.74C361.296 175.838 361.041 176.847 360.514 177.767C359.997 178.706 359.239 179.464 358.242 180.04L356.786 177.518ZM365.066 165.236L367.255 163.972L368.647 166.383L366.458 167.647L365.066 165.236ZM366.617 174.835L365.161 172.313C366.122 171.758 366.712 171.073 366.93 170.257C367.149 169.441 366.991 168.571 366.458 167.647L368.647 166.383C369.266 167.455 369.588 168.525 369.614 169.594C369.669 170.671 369.433 171.67 368.905 172.59C368.396 173.5 367.633 174.248 366.617 174.835ZM357.632 180.392C356.597 180.989 355.559 181.281 354.516 181.267C353.473 181.253 352.49 180.959 351.567 180.383C350.654 179.826 349.889 179.012 349.27 177.941L351.459 176.677C351.993 177.6 352.667 178.172 353.483 178.39C354.318 178.598 355.215 178.425 356.176 177.87L357.632 180.392ZM346.662 173.423L366.199 162.143L367.655 164.665L348.118 175.945L346.662 173.423ZM354.099 186.306L368.094 178.226L369.55 180.747L355.555 188.827L354.099 186.306ZM358.275 193.539L367.809 188.035L369.265 190.556L359.731 196.06L358.275 193.539ZM364.377 182.219C365.319 181.675 366.261 181.365 367.203 181.29C368.174 181.222 369.053 181.379 369.841 181.762C370.628 182.145 371.246 182.724 371.694 183.5L369.081 184.159C368.697 183.494 368.123 183.074 367.357 182.9C366.602 182.745 365.828 182.897 365.033 183.355L364.377 182.219ZM367.809 188.035C368.585 187.587 369.085 187.002 369.309 186.281C369.552 185.55 369.476 184.843 369.081 184.159L371.694 183.5C372.163 184.313 372.367 185.156 372.305 186.03C372.253 186.922 371.964 187.766 371.439 188.562C370.932 189.348 370.207 190.012 369.265 190.556L367.809 188.035ZM362.435 200.744L371.969 195.24L373.425 197.762L363.891 203.266L362.435 200.744ZM368.553 189.452C369.495 188.908 370.437 188.598 371.379 188.523C372.35 188.455 373.224 188.603 374.001 188.968C374.788 189.35 375.406 189.93 375.854 190.706L373.241 191.364C372.857 190.699 372.288 190.289 371.533 190.134C370.778 189.978 370.004 190.13 369.209 190.588L368.553 189.452ZM371.969 195.24C372.745 194.792 373.245 194.208 373.469 193.487C373.723 192.774 373.647 192.066 373.241 191.364L375.854 190.706C376.323 191.519 376.527 192.362 376.465 193.235C376.413 194.127 376.124 194.971 375.599 195.767C375.092 196.553 374.367 197.218 373.425 197.762L371.969 195.24Z" fill="white"/>
<path d="M297.784 136.715L299.048 134.525L306.724 138.957L305.46 141.147L297.784 136.715ZM303.176 128.336L304.472 126.091L310.07 129.323L308.774 131.568L303.176 128.336ZM307.651 116.361L310.172 117.817L298.892 137.355L296.371 135.899L307.651 116.361ZM309.341 117.337L316.463 121.449L315.199 123.638L308.077 119.526L309.341 117.337ZM308.224 142.742L316.304 128.747L318.826 130.203L310.746 144.198L308.224 142.742ZM315.457 146.918L320.961 137.385L323.483 138.841L317.979 148.374L315.457 146.918ZM315.082 134.065C315.626 133.122 316.287 132.383 317.064 131.847C317.871 131.303 318.711 130.999 319.585 130.937C320.458 130.875 321.283 131.068 322.059 131.516L320.126 133.392C319.461 133.008 318.753 132.933 318.003 133.165C317.272 133.408 316.677 133.926 316.218 134.721L315.082 134.065ZM320.961 137.385C321.409 136.609 321.55 135.853 321.384 135.117C321.229 134.362 320.809 133.787 320.126 133.392L322.059 131.516C322.872 131.985 323.47 132.614 323.853 133.401C324.254 134.199 324.426 135.075 324.369 136.027C324.322 136.961 324.027 137.899 323.483 138.841L320.961 137.385ZM322.663 151.078L328.167 141.545L330.689 143.001L325.185 152.534L322.663 151.078ZM322.315 138.241C322.859 137.298 323.52 136.559 324.298 136.023C325.104 135.479 325.935 135.17 326.79 135.097C327.664 135.035 328.489 135.228 329.264 135.676L327.331 137.552C326.666 137.168 325.968 137.098 325.236 137.341C324.505 137.584 323.91 138.102 323.451 138.897L322.315 138.241ZM328.167 141.545C328.615 140.769 328.756 140.013 328.59 139.277C328.453 138.533 328.033 137.958 327.331 137.552L329.264 135.676C330.077 136.145 330.675 136.774 331.058 137.561C331.459 138.359 331.631 139.235 331.574 140.187C331.528 141.121 331.233 142.059 330.689 143.001L328.167 141.545Z" fill="white"/>
</svg>
